<svg id="visual" viewBox="0 0 900 450" width="900" height="450" xmlns="http://www.w3.org/2000/svg" xmlns:xlink="http://www.w3.org/1999/xlink" version="1.1"><rect x="0" y="0" width="900" height="450" fill="#001220"></rect><defs><linearGradient id="grad1_0" x1="50%" y1="100%" x2="100%" y2="0%"><stop offset="10%" stop-color="#5ceacb" stop-opacity="1"></stop><stop offset="90%" stop-color="#5ceacb" stop-opacity="1"></stop></linearGradient></defs><defs><linearGradient id="grad1_1" x1="50%" y1="100%" x2="100%" y2="0%"><stop offset="10%" stop-color="#5ceacb" stop-opacity="1"></stop><stop offset="90%" stop-color="#1fbab6" stop-opacity="1"></stop></linearGradient></defs><defs><linearGradient id="grad1_2" x1="50%" y1="100%" x2="100%" y2="0%"><stop offset="10%" stop-color="#008c99" stop-opacity="1"></stop><stop offset="90%" stop-color="#1fbab6" stop-opacity="1"></stop></linearGradient></defs><defs><linearGradient id="grad1_3" x1="50%" y1="100%" x2="100%" y2="0%"><stop offset="10%" stop-color="#008c99" stop-opacity="1"></stop><stop offset="90%" stop-color="#005f74" stop-opacity="1"></stop></linearGradient></defs><defs><linearGradient id="grad1_4" x1="50%" y1="100%" x2="100%" y2="0%"><stop offset="10%" stop-color="#03364a" stop-opacity="1"></stop><stop offset="90%" stop-color="#005f74" stop-opacity="1"></stop></linearGradient></defs><defs><linearGradient id="grad1_5" x1="50%" y1="100%" x2="100%" y2="0%"><stop offset="10%" stop-color="#03364a" stop-opacity="1"></stop><stop offset="90%" stop-color="#001220" stop-opacity="1"></stop></linearGradient></defs><defs><linearGradient id="grad2_0" x1="0%" y1="100%" x2="50%" y2="0%"><stop offset="10%" stop-color="#5ceacb" stop-opacity="1"></stop><stop offset="90%" stop-color="#5ceacb" stop-opacity="1"></stop></linearGradient></defs><defs><linearGradient id="grad2_1" x1="0%" y1="100%" x2="50%" y2="0%"><stop offset="10%" stop-color="#1fbab6" stop-opacity="1"></stop><stop offset="90%" stop-color="#5ceacb" stop-opacity="1"></stop></linearGradient></defs><defs><linearGradient id="grad2_2" x1="0%" y1="100%" x2="50%" y2="0%"><stop offset="10%" stop-color="#1fbab6" stop-opacity="1"></stop><stop offset="90%" stop-color="#008c99" stop-opacity="1"></stop></linearGradient></defs><defs><linearGradient id="grad2_3" x1="0%" y1="100%" x2="50%" y2="0%"><stop offset="10%" stop-color="#005f74" stop-opacity="1"></stop><stop offset="90%" stop-color="#008c99" stop-opacity="1"></stop></linearGradient></defs><defs><linearGradient id="grad2_4" x1="0%" y1="100%" x2="50%" y2="0%"><stop offset="10%" stop-color="#005f74" stop-opacity="1"></stop><stop offset="90%" stop-color="#03364a" stop-opacity="1"></stop></linearGradient></defs><defs><linearGradient id="grad2_5" x1="0%" y1="100%" x2="50%" y2="0%"><stop offset="10%" stop-color="#001220" stop-opacity="1"></stop><stop offset="90%" stop-color="#03364a" stop-opacity="1"></stop></linearGradient></defs><g transform="translate(900, 450)"><path d="M-225 0C-217.8 -23.9 -210.7 -47.8 -195.9 -63.7C-181.2 -79.5 -158.8 -87.4 -149.7 -108.7C-140.6 -130.1 -144.7 -165 -132.3 -182C-119.8 -199.1 -90.6 -198.4 -65.8 -202.6C-41 -206.8 -20.5 -215.9 0 -225L0 0Z" fill="#052435"></path><path d="M-187.5 0C-181.5 -19.9 -175.6 -39.8 -163.3 -53C-151 -66.3 -132.3 -72.8 -124.7 -90.6C-117.1 -108.4 -120.6 -137.5 -110.2 -151.7C-99.8 -165.9 -75.5 -165.3 -54.9 -168.8C-34.2 -172.3 -17.1 -179.9 0 -187.5L0 0Z" fill="#004a60"></path><path d="M-150 0C-145.2 -15.9 -140.5 -31.9 -130.6 -42.4C-120.8 -53 -105.8 -58.3 -99.8 -72.5C-93.7 -86.7 -96.5 -110 -88.2 -121.4C-79.8 -132.7 -60.4 -132.3 -43.9 -135.1C-27.3 -137.8 -13.7 -143.9 0 -150L0 0Z" fill="#007587"></path><path d="M-112.5 0C-108.9 -11.9 -105.3 -23.9 -98 -31.8C-90.6 -39.8 -79.4 -43.7 -74.8 -54.4C-70.3 -65 -72.4 -82.5 -66.1 -91C-59.9 -99.5 -45.3 -99.2 -32.9 -101.3C-20.5 -103.4 -10.3 -107.9 0 -112.5L0 0Z" fill="#00a3a9"></path><path d="M-75 0C-72.6 -8 -70.2 -15.9 -65.3 -21.2C-60.4 -26.5 -52.9 -29.1 -49.9 -36.2C-46.9 -43.4 -48.2 -55 -44.1 -60.7C-39.9 -66.4 -30.2 -66.1 -21.9 -67.5C-13.7 -68.9 -6.8 -72 0 -75L0 0Z" fill="#3ed2c2"></path><path d="M-37.5 0C-36.3 -4 -35.1 -8 -32.7 -10.6C-30.2 -13.3 -26.5 -14.6 -24.9 -18.1C-23.4 -21.7 -24.1 -27.5 -22 -30.3C-20 -33.2 -15.1 -33.1 -11 -33.8C-6.8 -34.5 -3.4 -36 0 -37.5L0 0Z" fill="#5ceacb"></path></g><g transform="translate(0, 0)"><path d="M225 0C212.3 20.4 199.7 40.9 191.2 62.1C182.7 83.4 178.3 105.4 165.8 120.5C153.3 135.6 132.7 143.6 116.4 160.2C100.1 176.7 88.2 201.8 69.5 214C50.9 226.2 25.4 225.6 0 225L0 0Z" fill="#052435"></path><path d="M187.5 0C176.9 17 166.4 34.1 159.3 51.8C152.2 69.5 148.6 87.9 138.2 100.4C127.8 113 110.6 119.7 97 133.5C83.4 147.3 73.5 168.1 57.9 178.3C42.4 188.5 21.2 188 0 187.5L0 0Z" fill="#004a60"></path><path d="M150 0C141.6 13.6 133.1 27.2 127.4 41.4C121.8 55.6 118.9 70.3 110.6 80.3C102.2 90.4 88.4 95.8 77.6 106.8C66.7 117.8 58.8 134.5 46.4 142.7C33.9 150.8 17 150.4 0 150L0 0Z" fill="#007587"></path><path d="M112.5 0C106.2 10.2 99.8 20.4 95.6 31.1C91.3 41.7 89.2 52.7 82.9 60.2C76.7 67.8 66.3 71.8 58.2 80.1C50 88.4 44.1 100.9 34.8 107C25.4 113.1 12.7 112.8 0 112.5L0 0Z" fill="#00a3a9"></path><path d="M75 0C70.8 6.8 66.6 13.6 63.7 20.7C60.9 27.8 59.4 35.1 55.3 40.2C51.1 45.2 44.2 47.9 38.8 53.4C33.4 58.9 29.4 67.3 23.2 71.3C17 75.4 8.5 75.2 0 75L0 0Z" fill="#3ed2c2"></path><path d="M37.5 0C35.4 3.4 33.3 6.8 31.9 10.4C30.4 13.9 29.7 17.6 27.6 20.1C25.6 22.6 22.1 23.9 19.4 26.7C16.7 29.5 14.7 33.6 11.6 35.7C8.5 37.7 4.2 37.6 0 37.5L0 0Z" fill="#5ceacb"></path></g></svg>