<svg id="visual" viewBox="0 0 50 100" width="50" height="100" xmlns="http://www.w3.org/2000/svg" xmlns:xlink="http://www.w3.org/1999/xlink" version="1.1"><path d="M0 16L1.3 16.8C2.7 17.7 5.3 19.3 8.2 19.2C11 19 14 17 16.8 16.8C19.7 16.7 22.3 18.3 25 18.7C27.7 19 30.3 18 33.2 17.3C36 16.7 39 16.3 41.8 17C44.7 17.7 47.3 19.3 48.7 20.2L50 21L50 0L48.7 0C47.3 0 44.7 0 41.8 0C39 0 36 0 33.2 0C30.3 0 27.7 0 25 0C22.3 0 19.7 0 16.8 0C14 0 11 0 8.2 0C5.3 0 2.7 0 1.3 0L0 0Z" fill="#00ffc8"></path><path d="M0 12L1.3 12.5C2.7 13 5.3 14 8.2 14.5C11 15 14 15 16.8 15C19.7 15 22.3 15 25 15.3C27.7 15.7 30.3 16.3 33.2 17.2C36 18 39 19 41.8 18.2C44.7 17.3 47.3 14.7 48.7 13.3L50 12L50 0L48.7 0C47.3 0 44.7 0 41.8 0C39 0 36 0 33.2 0C30.3 0 27.7 0 25 0C22.3 0 19.7 0 16.8 0C14 0 11 0 8.2 0C5.3 0 2.7 0 1.3 0L0 0Z" fill="#00ebf0"></path><path d="M0 11L1.3 11.2C2.7 11.3 5.3 11.7 8.2 11.7C11 11.7 14 11.3 16.8 11.8C19.7 12.3 22.3 13.7 25 13.7C27.7 13.7 30.3 12.3 33.2 11.5C36 10.7 39 10.3 41.8 11C44.7 11.7 47.3 13.3 48.7 14.2L50 15L50 0L48.7 0C47.3 0 44.7 0 41.8 0C39 0 36 0 33.2 0C30.3 0 27.7 0 25 0C22.3 0 19.7 0 16.8 0C14 0 11 0 8.2 0C5.3 0 2.7 0 1.3 0L0 0Z" fill="#00d1ff"></path><path d="M0 13L1.3 13C2.7 13 5.3 13 8.2 12C11 11 14 9 16.8 8C19.7 7 22.3 7 25 7.7C27.7 8.3 30.3 9.7 33.2 10C36 10.3 39 9.7 41.8 9.2C44.7 8.7 47.3 8.3 48.7 8.2L50 8L50 0L48.7 0C47.3 0 44.7 0 41.8 0C39 0 36 0 33.2 0C30.3 0 27.7 0 25 0C22.3 0 19.7 0 16.8 0C14 0 11 0 8.2 0C5.3 0 2.7 0 1.3 0L0 0Z" fill="#00b4ff"></path><path d="M0 4L1.3 4.8C2.7 5.7 5.3 7.3 8.2 7.7C11 8 14 7 16.8 6.5C19.7 6 22.3 6 25 5.8C27.7 5.7 30.3 5.3 33.2 5.7C36 6 39 7 41.8 6.8C44.7 6.7 47.3 5.3 48.7 4.7L50 4L50 0L48.7 0C47.3 0 44.7 0 41.8 0C39 0 36 0 33.2 0C30.3 0 27.7 0 25 0C22.3 0 19.7 0 16.8 0C14 0 11 0 8.2 0C5.3 0 2.7 0 1.3 0L0 0Z" fill="#0091ff"></path><path d="M0 4L1.3 3.7C2.7 3.3 5.3 2.7 8.2 2.3C11 2 14 2 16.8 2.2C19.7 2.3 22.3 2.7 25 2.7C27.7 2.7 30.3 2.3 33.2 2.3C36 2.3 39 2.7 41.8 2.7C44.7 2.7 47.3 2.3 48.7 2.2L50 2L50 0L48.7 0C47.3 0 44.7 0 41.8 0C39 0 36 0 33.2 0C30.3 0 27.7 0 25 0C22.3 0 19.7 0 16.8 0C14 0 11 0 8.2 0C5.3 0 2.7 0 1.3 0L0 0Z" fill="#0066ff"></path></svg>