<svg id="visual" viewBox="0 0 450 900" width="450" height="900" xmlns="http://www.w3.org/2000/svg" xmlns:xlink="http://www.w3.org/1999/xlink" version="1.1"><rect x="0" y="0" width="450" height="900" fill="#001220"></rect><defs><linearGradient id="grad1_0" x1="0%" y1="100%" x2="100%" y2="0%"><stop offset="30%" stop-color="#5ceacb" stop-opacity="1"></stop><stop offset="70%" stop-color="#5ceacb" stop-opacity="1"></stop></linearGradient></defs><defs><linearGradient id="grad1_1" x1="0%" y1="100%" x2="100%" y2="0%"><stop offset="30%" stop-color="#5ceacb" stop-opacity="1"></stop><stop offset="70%" stop-color="#1fbab6" stop-opacity="1"></stop></linearGradient></defs><defs><linearGradient id="grad1_2" x1="0%" y1="100%" x2="100%" y2="0%"><stop offset="30%" stop-color="#008c99" stop-opacity="1"></stop><stop offset="70%" stop-color="#1fbab6" stop-opacity="1"></stop></linearGradient></defs><defs><linearGradient id="grad1_3" x1="0%" y1="100%" x2="100%" y2="0%"><stop offset="30%" stop-color="#008c99" stop-opacity="1"></stop><stop offset="70%" stop-color="#005f74" stop-opacity="1"></stop></linearGradient></defs><defs><linearGradient id="grad1_4" x1="0%" y1="100%" x2="100%" y2="0%"><stop offset="30%" stop-color="#03364a" stop-opacity="1"></stop><stop offset="70%" stop-color="#005f74" stop-opacity="1"></stop></linearGradient></defs><defs><linearGradient id="grad1_5" x1="0%" y1="100%" x2="100%" y2="0%"><stop offset="30%" stop-color="#03364a" stop-opacity="1"></stop><stop offset="70%" stop-color="#001220" stop-opacity="1"></stop></linearGradient></defs><defs><linearGradient id="grad2_0" x1="0%" y1="100%" x2="100%" y2="0%"><stop offset="30%" stop-color="#5ceacb" stop-opacity="1"></stop><stop offset="70%" stop-color="#5ceacb" stop-opacity="1"></stop></linearGradient></defs><defs><linearGradient id="grad2_1" x1="0%" y1="100%" x2="100%" y2="0%"><stop offset="30%" stop-color="#1fbab6" stop-opacity="1"></stop><stop offset="70%" stop-color="#5ceacb" stop-opacity="1"></stop></linearGradient></defs><defs><linearGradient id="grad2_2" x1="0%" y1="100%" x2="100%" y2="0%"><stop offset="30%" stop-color="#1fbab6" stop-opacity="1"></stop><stop offset="70%" stop-color="#008c99" stop-opacity="1"></stop></linearGradient></defs><defs><linearGradient id="grad2_3" x1="0%" y1="100%" x2="100%" y2="0%"><stop offset="30%" stop-color="#005f74" stop-opacity="1"></stop><stop offset="70%" stop-color="#008c99" stop-opacity="1"></stop></linearGradient></defs><defs><linearGradient id="grad2_4" x1="0%" y1="100%" x2="100%" y2="0%"><stop offset="30%" stop-color="#005f74" stop-opacity="1"></stop><stop offset="70%" stop-color="#03364a" stop-opacity="1"></stop></linearGradient></defs><defs><linearGradient id="grad2_5" x1="0%" y1="100%" x2="100%" y2="0%"><stop offset="30%" stop-color="#001220" stop-opacity="1"></stop><stop offset="70%" stop-color="#03364a" stop-opacity="1"></stop></linearGradient></defs><g transform="translate(450, 900)"><path d="M-225 0C-207.6 -24.7 -190.2 -49.5 -178.3 -73.9C-166.4 -98.2 -160 -122.2 -146.4 -146.4C-132.7 -170.5 -111.7 -194.7 -86.1 -207.9C-60.5 -221 -30.2 -223 0 -225L0 0Z" fill="#052435"></path><path d="M-187.5 0C-173 -20.6 -158.5 -41.2 -148.6 -61.5C-138.7 -81.9 -133.4 -101.9 -122 -122C-110.6 -142.1 -93.1 -162.3 -71.8 -173.2C-50.4 -184.2 -25.2 -185.8 0 -187.5L0 0Z" fill="#004a60"></path><path d="M-150 0C-138.4 -16.5 -126.8 -33 -118.9 -49.2C-110.9 -65.5 -106.7 -81.5 -97.6 -97.6C-88.5 -113.7 -74.5 -129.8 -57.4 -138.6C-40.3 -147.3 -20.2 -148.7 0 -150L0 0Z" fill="#007587"></path><path d="M-112.5 0C-103.8 -12.4 -95.1 -24.7 -89.2 -36.9C-83.2 -49.1 -80 -61.1 -73.2 -73.2C-66.3 -85.2 -55.9 -97.4 -43.1 -103.9C-30.2 -110.5 -15.1 -111.5 0 -112.5L0 0Z" fill="#00a3a9"></path><path d="M-75 0C-69.2 -8.2 -63.4 -16.5 -59.4 -24.6C-55.5 -32.7 -53.3 -40.7 -48.8 -48.8C-44.2 -56.8 -37.2 -64.9 -28.7 -69.3C-20.2 -73.7 -10.1 -74.3 0 -75L0 0Z" fill="#3ed2c2"></path><path d="M-37.5 0C-34.6 -4.1 -31.7 -8.2 -29.7 -12.3C-27.7 -16.4 -26.7 -20.4 -24.4 -24.4C-22.1 -28.4 -18.6 -32.5 -14.4 -34.6C-10.1 -36.8 -5 -37.2 0 -37.5L0 0Z" fill="#5ceacb"></path></g><g transform="translate(0, 0)"><path d="M225 0C218 28.1 210.9 56.3 200.5 83C190 109.8 176.2 135.1 157 157C137.8 178.8 113.2 197.1 86.1 207.9C59 218.6 29.5 221.8 0 225L0 0Z" fill="#052435"></path><path d="M187.5 0C181.6 23.5 175.8 46.9 167.1 69.2C158.4 91.5 146.8 112.6 130.8 130.8C114.8 149 94.3 164.3 71.8 173.2C49.2 182.2 24.6 184.8 0 187.5L0 0Z" fill="#004a60"></path><path d="M150 0C145.3 18.8 140.6 37.5 133.7 55.4C126.7 73.2 117.5 90.1 104.7 104.7C91.8 119.2 75.4 131.4 57.4 138.6C39.4 145.7 19.7 147.9 0 150L0 0Z" fill="#007587"></path><path d="M112.5 0C109 14.1 105.5 28.1 100.2 41.5C95 54.9 88.1 67.6 78.5 78.5C68.9 89.4 56.6 98.6 43.1 103.9C29.5 109.3 14.8 110.9 0 112.5L0 0Z" fill="#00a3a9"></path><path d="M75 0C72.7 9.4 70.3 18.8 66.8 27.7C63.3 36.6 58.7 45 52.3 52.3C45.9 59.6 37.7 65.7 28.7 69.3C19.7 72.9 9.8 73.9 0 75L0 0Z" fill="#3ed2c2"></path><path d="M37.5 0C36.3 4.7 35.2 9.4 33.4 13.8C31.7 18.3 29.4 22.5 26.2 26.2C23 29.8 18.9 32.9 14.4 34.6C9.8 36.4 4.9 37 0 37.5L0 0Z" fill="#5ceacb"></path></g></svg>