<svg id="visual" viewBox="0 0 50 100"  xmlns="http://www.w3.org/2000/svg" xmlns:xlink="http://www.w3.org/1999/xlink" version="1.1"><path d="M0 10L1.3 10.7C2.7 11.3 5.3 12.7 8.2 12.7C11 12.7 14 11.3 16.8 11.2C19.7 11 22.3 12 25 12.2C27.7 12.3 30.3 11.7 33.2 11.2C36 10.7 39 10.3 41.8 10.8C44.7 11.3 47.3 12.7 48.7 13.3L50 14L50 0L48.7 0C47.3 0 44.7 0 41.8 0C39 0 36 0 33.2 0C30.3 0 27.7 0 25 0C22.3 0 19.7 0 16.8 0C14 0 11 0 8.2 0C5.3 0 2.7 0 1.3 0L0 0Z" fill="#00ffc8"></path><path d="M0 8L1.3 8.2C2.7 8.3 5.3 8.7 8.2 8.8C11 9 14 9 16.8 9.2C19.7 9.3 22.3 9.7 25 10C27.7 10.3 30.3 10.7 33.2 11.2C36 11.7 39 12.3 41.8 11.8C44.7 11.3 47.3 9.7 48.7 8.8L50 8L50 0L48.7 0C47.3 0 44.7 0 41.8 0C39 0 36 0 33.2 0C30.3 0 27.7 0 25 0C22.3 0 19.7 0 16.8 0C14 0 11 0 8.2 0C5.3 0 2.7 0 1.3 0L0 0Z" fill="#00ebf0"></path><path d="M0 7L1.3 7C2.7 7 5.3 7 8.2 7C11 7 14 7 16.8 7.5C19.7 8 22.3 9 25 9C27.7 9 30.3 8 33.2 7.5C36 7 39 7 41.8 7.5C44.7 8 47.3 9 48.7 9.5L50 10L50 0L48.7 0C47.3 0 44.7 0 41.8 0C39 0 36 0 33.2 0C30.3 0 27.7 0 25 0C22.3 0 19.7 0 16.8 0C14 0 11 0 8.2 0C5.3 0 2.7 0 1.3 0L0 0Z" fill="#00d1ff"></path><path d="M0 8L1.3 8C2.7 8 5.3 8 8.2 7.3C11 6.7 14 5.3 16.8 4.7C19.7 4 22.3 4 25 4.5C27.7 5 30.3 6 33.2 6.3C36 6.7 39 6.3 41.8 6C44.7 5.7 47.3 5.3 48.7 5.2L50 5L50 0L48.7 0C47.3 0 44.7 0 41.8 0C39 0 36 0 33.2 0C30.3 0 27.7 0 25 0C22.3 0 19.7 0 16.8 0C14 0 11 0 8.2 0C5.3 0 2.7 0 1.3 0L0 0Z" fill="#00b4ff"></path><path d="M0 3L1.3 3.3C2.7 3.7 5.3 4.3 8.2 4.5C11 4.7 14 4.3 16.8 4.2C19.7 4 22.3 4 25 3.8C27.7 3.7 30.3 3.3 33.2 3.5C36 3.7 39 4.3 41.8 4.3C44.7 4.3 47.3 3.7 48.7 3.3L50 3L50 0L48.7 0C47.3 0 44.7 0 41.8 0C39 0 36 0 33.2 0C30.3 0 27.7 0 25 0C22.3 0 19.7 0 16.8 0C14 0 11 0 8.2 0C5.3 0 2.7 0 1.3 0L0 0Z" fill="#0091ff"></path><path d="M0 3L1.3 2.7C2.7 2.3 5.3 1.7 8.2 1.3C11 1 14 1 16.8 1.2C19.7 1.3 22.3 1.7 25 1.7C27.7 1.7 30.3 1.3 33.2 1.3C36 1.3 39 1.7 41.8 1.7C44.7 1.7 47.3 1.3 48.7 1.2L50 1L50 0L48.7 0C47.3 0 44.7 0 41.8 0C39 0 36 0 33.2 0C30.3 0 27.7 0 25 0C22.3 0 19.7 0 16.8 0C14 0 11 0 8.2 0C5.3 0 2.7 0 1.3 0L0 0Z" fill="#0066ff"></path></svg>