<svg id="visual" viewBox="0 0 200 600" width="200" height="600" xmlns="http://www.w3.org/2000/svg" xmlns:xlink="http://www.w3.org/1999/xlink" version="1.1"><path d="M116 0L112.7 14.3C109.3 28.7 102.7 57.3 105.2 85.8C107.7 114.3 119.3 142.7 127.8 171.2C136.3 199.7 141.7 228.3 138.2 257C134.7 285.7 122.3 314.3 119.2 343C116 371.7 122 400.3 121.8 428.8C121.7 457.3 115.3 485.7 113.7 514.2C112 542.7 115 571.3 116.5 585.7L118 600L0 600L0 585.7C0 571.3 0 542.7 0 514.2C0 485.7 0 457.3 0 428.8C0 400.3 0 371.7 0 343C0 314.3 0 285.7 0 257C0 228.3 0 199.7 0 171.2C0 142.7 0 114.3 0 85.8C0 57.3 0 28.7 0 14.3L0 0Z" fill="#00ffc8"></path><path d="M73 0L73.5 14.3C74 28.7 75 57.3 76.5 85.8C78 114.3 80 142.7 84.5 171.2C89 199.7 96 228.3 99.2 257C102.3 285.7 101.7 314.3 104 343C106.3 371.7 111.7 400.3 111.2 428.8C110.7 457.3 104.3 485.7 104.3 514.2C104.3 542.7 110.7 571.3 113.8 585.7L117 600L0 600L0 585.7C0 571.3 0 542.7 0 514.2C0 485.7 0 457.3 0 428.8C0 400.3 0 371.7 0 343C0 314.3 0 285.7 0 257C0 228.3 0 199.7 0 171.2C0 142.7 0 114.3 0 85.8C0 57.3 0 28.7 0 14.3L0 0Z" fill="#00e5f7"></path><path d="M81 0L82.3 14.3C83.7 28.7 86.3 57.3 89 85.8C91.7 114.3 94.3 142.7 95.3 171.2C96.3 199.7 95.7 228.3 94.7 257C93.7 285.7 92.3 314.3 88 343C83.7 371.7 76.3 400.3 75.7 428.8C75 457.3 81 485.7 81 514.2C81 542.7 75 571.3 72 585.7L69 600L0 600L0 585.7C0 571.3 0 542.7 0 514.2C0 485.7 0 457.3 0 428.8C0 400.3 0 371.7 0 343C0 314.3 0 285.7 0 257C0 228.3 0 199.7 0 171.2C0 142.7 0 114.3 0 85.8C0 57.3 0 28.7 0 14.3L0 0Z" fill="#00c3ff"></path><path d="M72 0L69.8 14.3C67.7 28.7 63.3 57.3 59.7 85.8C56 114.3 53 142.7 52.5 171.2C52 199.7 54 228.3 53.5 257C53 285.7 50 314.3 47.5 343C45 371.7 43 400.3 42.3 428.8C41.7 457.3 42.3 485.7 44 514.2C45.7 542.7 48.3 571.3 49.7 585.7L51 600L0 600L0 585.7C0 571.3 0 542.7 0 514.2C0 485.7 0 457.3 0 428.8C0 400.3 0 371.7 0 343C0 314.3 0 285.7 0 257C0 228.3 0 199.7 0 171.2C0 142.7 0 114.3 0 85.8C0 57.3 0 28.7 0 14.3L0 0Z" fill="#009bff"></path><path d="M43 0L42.2 14.3C41.3 28.7 39.7 57.3 36.3 85.8C33 114.3 28 142.7 27.5 171.2C27 199.7 31 228.3 33.3 257C35.7 285.7 36.3 314.3 36.7 343C37 371.7 37 400.3 37.5 428.8C38 457.3 39 485.7 40.2 514.2C41.3 542.7 42.7 571.3 43.3 585.7L44 600L0 600L0 585.7C0 571.3 0 542.7 0 514.2C0 485.7 0 457.3 0 428.8C0 400.3 0 371.7 0 343C0 314.3 0 285.7 0 257C0 228.3 0 199.7 0 171.2C0 142.7 0 114.3 0 85.8C0 57.3 0 28.7 0 14.3L0 0Z" fill="#0066ff"></path></svg>