<svg id="visual" viewBox="0 0 900 600" width="900" height="600" xmlns="http://www.w3.org/2000/svg" xmlns:xlink="http://www.w3.org/1999/xlink" version="1.1"><rect x="0" y="0" width="900" height="600" fill="#000000"></rect><path d="M0 265L16.7 270.3C33.3 275.7 66.7 286.3 100 279C133.3 271.7 166.7 246.3 200 244.8C233.3 243.3 266.7 265.7 300 280.5C333.3 295.3 366.7 302.7 400 294.5C433.3 286.3 466.7 262.7 500 260.5C533.3 258.3 566.7 277.7 600 288C633.3 298.3 666.7 299.7 700 285.5C733.3 271.3 766.7 241.7 800 231.5C833.3 221.3 866.7 230.7 883.3 235.3L900 240L900 0L883.3 0C866.7 0 833.3 0 800 0C766.7 0 733.3 0 700 0C666.7 0 633.3 0 600 0C566.7 0 533.3 0 500 0C466.7 0 433.3 0 400 0C366.7 0 333.3 0 300 0C266.7 0 233.3 0 200 0C166.7 0 133.3 0 100 0C66.7 0 33.3 0 16.7 0L0 0Z" fill="#ff7eb2"></path><path d="M0 202L16.7 212.3C33.3 222.7 66.7 243.3 100 249.5C133.3 255.7 166.7 247.3 200 240.7C233.3 234 266.7 229 300 220.7C333.3 212.3 366.7 200.7 400 207.2C433.3 213.7 466.7 238.3 500 240.5C533.3 242.7 566.7 222.3 600 216.5C633.3 210.7 666.7 219.3 700 222C733.3 224.7 766.7 221.3 800 217.5C833.3 213.7 866.7 209.3 883.3 207.2L900 205L900 0L883.3 0C866.7 0 833.3 0 800 0C766.7 0 733.3 0 700 0C666.7 0 633.3 0 600 0C566.7 0 533.3 0 500 0C466.7 0 433.3 0 400 0C366.7 0 333.3 0 300 0C266.7 0 233.3 0 200 0C166.7 0 133.3 0 100 0C66.7 0 33.3 0 16.7 0L0 0Z" fill="#fa63b6"></path><path d="M0 230L16.7 222.8C33.3 215.7 66.7 201.3 100 197C133.3 192.7 166.7 198.3 200 203.3C233.3 208.3 266.7 212.7 300 212.2C333.3 211.7 366.7 206.3 400 203.7C433.3 201 466.7 201 500 193.2C533.3 185.3 566.7 169.7 600 170.3C633.3 171 666.7 188 700 185.7C733.3 183.3 766.7 161.7 800 156.7C833.3 151.7 866.7 163.3 883.3 169.2L900 175L900 0L883.3 0C866.7 0 833.3 0 800 0C766.7 0 733.3 0 700 0C666.7 0 633.3 0 600 0C566.7 0 533.3 0 500 0C466.7 0 433.3 0 400 0C366.7 0 333.3 0 300 0C266.7 0 233.3 0 200 0C166.7 0 133.3 0 100 0C66.7 0 33.3 0 16.7 0L0 0Z" fill="#ef47be"></path><path d="M0 194L16.7 191.2C33.3 188.3 66.7 182.7 100 170.3C133.3 158 166.7 139 200 129C233.3 119 266.7 118 300 129.3C333.3 140.7 366.7 164.3 400 177.3C433.3 190.3 466.7 192.7 500 183C533.3 173.3 566.7 151.7 600 141.7C633.3 131.7 666.7 133.3 700 143.7C733.3 154 766.7 173 800 174C833.3 175 866.7 158 883.3 149.5L900 141L900 0L883.3 0C866.7 0 833.3 0 800 0C766.7 0 733.3 0 700 0C666.7 0 633.3 0 600 0C566.7 0 533.3 0 500 0C466.7 0 433.3 0 400 0C366.7 0 333.3 0 300 0C266.7 0 233.3 0 200 0C166.7 0 133.3 0 100 0C66.7 0 33.3 0 16.7 0L0 0Z" fill="#df28ca"></path><path d="M0 155L16.7 149C33.3 143 66.7 131 100 120.2C133.3 109.3 166.7 99.7 200 98.2C233.3 96.7 266.7 103.3 300 103.2C333.3 103 366.7 96 400 96.5C433.3 97 466.7 105 500 109.5C533.3 114 566.7 115 600 118.7C633.3 122.3 666.7 128.7 700 129.8C733.3 131 766.7 127 800 124C833.3 121 866.7 119 883.3 118L900 117L900 0L883.3 0C866.7 0 833.3 0 800 0C766.7 0 733.3 0 700 0C666.7 0 633.3 0 600 0C566.7 0 533.3 0 500 0C466.7 0 433.3 0 400 0C366.7 0 333.3 0 300 0C266.7 0 233.3 0 200 0C166.7 0 133.3 0 100 0C66.7 0 33.3 0 16.7 0L0 0Z" fill="#c700d9"></path><path d="M0 99L16.7 92.5C33.3 86 66.7 73 100 69.5C133.3 66 166.7 72 200 78C233.3 84 266.7 90 300 88.3C333.3 86.7 366.7 77.3 400 79.2C433.3 81 466.7 94 500 98C533.3 102 566.7 97 600 92.2C633.3 87.3 666.7 82.7 700 80.3C733.3 78 766.7 78 800 84C833.3 90 866.7 102 883.3 108L900 114L900 0L883.3 0C866.7 0 833.3 0 800 0C766.7 0 733.3 0 700 0C666.7 0 633.3 0 600 0C566.7 0 533.3 0 500 0C466.7 0 433.3 0 400 0C366.7 0 333.3 0 300 0C266.7 0 233.3 0 200 0C166.7 0 133.3 0 100 0C66.7 0 33.3 0 16.7 0L0 0Z" fill="#a300eb"></path><path d="M0 51L16.7 50.8C33.3 50.7 66.7 50.3 100 50.7C133.3 51 166.7 52 200 49.5C233.3 47 266.7 41 300 43.8C333.3 46.7 366.7 58.3 400 59.3C433.3 60.3 466.7 50.7 500 45.5C533.3 40.3 566.7 39.7 600 41.5C633.3 43.3 666.7 47.7 700 49.7C733.3 51.7 766.7 51.3 800 53.5C833.3 55.7 866.7 60.3 883.3 62.7L900 65L900 0L883.3 0C866.7 0 833.3 0 800 0C766.7 0 733.3 0 700 0C666.7 0 633.3 0 600 0C566.7 0 533.3 0 500 0C466.7 0 433.3 0 400 0C366.7 0 333.3 0 300 0C266.7 0 233.3 0 200 0C166.7 0 133.3 0 100 0C66.7 0 33.3 0 16.7 0L0 0Z" fill="#6600ff"></path></svg>