<svg id="visual" viewBox="0 0 900 600" width="900" height="600" xmlns="http://www.w3.org/2000/svg" xmlns:xlink="http://www.w3.org/1999/xlink" version="1.1"><rect x="0" y="0" width="900" height="600" fill="#000000"></rect><path d="M0 395L18.8 390.5C37.7 386 75.3 377 112.8 372C150.3 367 187.7 366 225.2 354.7C262.7 343.3 300.3 321.7 337.8 321.7C375.3 321.7 412.7 343.3 450.2 348.3C487.7 353.3 525.3 341.7 562.8 337.8C600.3 334 637.7 338 675.2 342.7C712.7 347.3 750.3 352.7 787.8 354.7C825.3 356.7 862.7 355.3 881.3 354.7L900 354L900 601L881.3 601C862.7 601 825.3 601 787.8 601C750.3 601 712.7 601 675.2 601C637.7 601 600.3 601 562.8 601C525.3 601 487.7 601 450.2 601C412.7 601 375.3 601 337.8 601C300.3 601 262.7 601 225.2 601C187.7 601 150.3 601 112.8 601C75.3 601 37.7 601 18.8 601L0 601Z" fill="#ff7eb2"></path><path d="M0 345L18.8 349.7C37.7 354.3 75.3 363.7 112.8 373.3C150.3 383 187.7 393 225.2 397.8C262.7 402.7 300.3 402.3 337.8 401.7C375.3 401 412.7 400 450.2 391.8C487.7 383.7 525.3 368.3 562.8 373.3C600.3 378.3 637.7 403.7 675.2 397.2C712.7 390.7 750.3 352.3 787.8 343C825.3 333.7 862.7 353.3 881.3 363.2L900 373L900 601L881.3 601C862.7 601 825.3 601 787.8 601C750.3 601 712.7 601 675.2 601C637.7 601 600.3 601 562.8 601C525.3 601 487.7 601 450.2 601C412.7 601 375.3 601 337.8 601C300.3 601 262.7 601 225.2 601C187.7 601 150.3 601 112.8 601C75.3 601 37.7 601 18.8 601L0 601Z" fill="#f555b9"></path><path d="M0 482L18.8 468.2C37.7 454.3 75.3 426.7 112.8 410.3C150.3 394 187.7 389 225.2 393.7C262.7 398.3 300.3 412.7 337.8 409.3C375.3 406 412.7 385 450.2 389.8C487.7 394.7 525.3 425.3 562.8 429.8C600.3 434.3 637.7 412.7 675.2 397.3C712.7 382 750.3 373 787.8 373.8C825.3 374.7 862.7 385.3 881.3 390.7L900 396L900 601L881.3 601C862.7 601 825.3 601 787.8 601C750.3 601 712.7 601 675.2 601C637.7 601 600.3 601 562.8 601C525.3 601 487.7 601 450.2 601C412.7 601 375.3 601 337.8 601C300.3 601 262.7 601 225.2 601C187.7 601 150.3 601 112.8 601C75.3 601 37.7 601 18.8 601L0 601Z" fill="#df28ca"></path><path d="M0 502L18.8 498C37.7 494 75.3 486 112.8 475.2C150.3 464.3 187.7 450.7 225.2 450.8C262.7 451 300.3 465 337.8 470.7C375.3 476.3 412.7 473.7 450.2 473C487.7 472.3 525.3 473.7 562.8 479.7C600.3 485.7 637.7 496.3 675.2 504.8C712.7 513.3 750.3 519.7 787.8 517C825.3 514.3 862.7 502.7 881.3 496.8L900 491L900 601L881.3 601C862.7 601 825.3 601 787.8 601C750.3 601 712.7 601 675.2 601C637.7 601 600.3 601 562.8 601C525.3 601 487.7 601 450.2 601C412.7 601 375.3 601 337.8 601C300.3 601 262.7 601 225.2 601C187.7 601 150.3 601 112.8 601C75.3 601 37.7 601 18.8 601L0 601Z" fill="#b600e2"></path><path d="M0 558L18.8 547.7C37.7 537.3 75.3 516.7 112.8 512.2C150.3 507.7 187.7 519.3 225.2 523C262.7 526.7 300.3 522.3 337.8 518.7C375.3 515 412.7 512 450.2 520.7C487.7 529.3 525.3 549.7 562.8 549.8C600.3 550 637.7 530 675.2 528.7C712.7 527.3 750.3 544.7 787.8 551.8C825.3 559 862.7 556 881.3 554.5L900 553L900 601L881.3 601C862.7 601 825.3 601 787.8 601C750.3 601 712.7 601 675.2 601C637.7 601 600.3 601 562.8 601C525.3 601 487.7 601 450.2 601C412.7 601 375.3 601 337.8 601C300.3 601 262.7 601 225.2 601C187.7 601 150.3 601 112.8 601C75.3 601 37.7 601 18.8 601L0 601Z" fill="#6600ff"></path></svg>