<svg id="visual" viewBox="0 0 900 600" width="900" height="600" xmlns="http://www.w3.org/2000/svg" xmlns:xlink="http://www.w3.org/1999/xlink" version="1.1">
<path d="M772 600L770.3 585.7C768.7 571.3 765.3 542.7 760.8 514.2C756.3 485.7 750.7 457.3 752.8 428.8C755 400.3 765 371.7 773.2 343C781.3 314.3 787.7 285.7 785 257C782.3 228.3 770.7 199.7 767.8 171.2C765 142.7 771 114.3 771.5 85.8C772 57.3 767 28.7 764.5 14.3L762 0L900 0L900 14.3C900 28.7 900 57.3 900 85.8C900 114.3 900 142.7 900 171.2C900 199.7 900 228.3 900 257C900 285.7 900 314.3 900 343C900 371.7 900 400.3 900 428.8C900 457.3 900 485.7 900 514.2C900 542.7 900 571.3 900 585.7L900 600Z" fill="#8b0af6"></path>

<path d="M801 600L802.5 585.7C804 571.3 807 542.7 801.5 514.2C796 485.7 782 457.3 783.5 428.8C785 400.3 802 371.7 803.2 343C804.3 314.3 789.7 285.7 789.2 257C788.7 228.3 802.3 199.7 800.8 171.2C799.3 142.7 782.7 114.3 778 85.8C773.3 57.3 780.7 28.7 784.3 14.3L788 0L900 0L900 14.3C900 28.7 900 57.3 900 85.8C900 114.3 900 142.7 900 171.2C900 199.7 900 228.3 900 257C900 285.7 900 314.3 900 343C900 371.7 900 400.3 900 428.8C900 457.3 900 485.7 900 514.2C900 542.7 900 571.3 900 585.7L900 600Z" fill="#5f46f2"></path>

<path d="M813 600L813.3 585.7C813.7 571.3 814.3 542.7 819.5 514.2C824.7 485.7 834.3 457.3 837.7 428.8C841 400.3 838 371.7 833.8 343C829.7 314.3 824.3 285.7 826.3 257C828.3 228.3 837.7 199.7 842 171.2C846.3 142.7 845.7 114.3 837.3 85.8C829 57.3 813 28.7 805 14.3L797 0L900 0L900 14.3C900 28.7 900 57.3 900 85.8C900 114.3 900 142.7 900 171.2C900 199.7 900 228.3 900 257C900 285.7 900 314.3 900 343C900 371.7 900 400.3 900 428.8C900 457.3 900 485.7 900 514.2C900 542.7 900 571.3 900 585.7L900 600Z" fill="#385be6"></path>

<path d="M823 600L825.3 585.7C827.7 571.3 832.3 542.7 834.7 514.2C837 485.7 837 457.3 839.8 428.8C842.7 400.3 848.3 371.7 847.5 343C846.7 314.3 839.3 285.7 835.3 257C831.3 228.3 830.7 199.7 831 171.2C831.3 142.7 832.7 114.3 832.5 85.8C832.3 57.3 830.7 28.7 829.8 14.3L829 0L900 0L900 14.3C900 28.7 900 57.3 900 85.8C900 114.3 900 142.7 900 171.2C900 199.7 900 228.3 900 257C900 285.7 900 314.3 900 343C900 371.7 900 400.3 900 428.8C900 457.3 900 485.7 900 514.2C900 542.7 900 571.3 900 585.7L900 600Z" fill="#2768d3"></path>

<path d="M878 600L878.3 585.7C878.7 571.3 879.3 542.7 881.5 514.2C883.7 485.7 887.3 457.3 887.8 428.8C888.3 400.3 885.7 371.7 881.5 343C877.3 314.3 871.7 285.7 870.7 257C869.7 228.3 873.3 199.7 873.3 171.2C873.3 142.7 869.7 114.3 868 85.8C866.3 57.3 866.7 28.7 866.8 14.3L867 0L900 0L900 14.3C900 28.7 900 57.3 900 85.8C900 114.3 900 142.7 900 171.2C900 199.7 900 228.3 900 257C900 285.7 900 314.3 900 343C900 371.7 900 400.3 900 428.8C900 457.3 900 485.7 900 514.2C900 542.7 900 571.3 900 585.7L900 600Z" fill="#3870bb"></path>

</svg>