<svg id="visual" viewBox="0 0 900 600" width="900" height="600" xmlns="http://www.w3.org/2000/svg" xmlns:xlink="http://www.w3.org/1999/xlink" version="1.1">

<path d="M130 0L131.7 14.3C133.3 28.7 136.7 57.3 141.2 85.8C145.7 114.3 151.3 142.7 149.2 171.2C147 199.7 137 228.3 128.8 257C120.7 285.7 114.3 314.3 117 343C119.7 371.7 131.3 400.3 134.2 428.8C137 457.3 131 485.7 130.5 514.2C130 542.7 135 571.3 137.5 585.7L140 600L0 600L0 585.7C0 571.3 0 542.7 0 514.2C0 485.7 0 457.3 0 428.8C0 400.3 0 371.7 0 343C0 314.3 0 285.7 0 257C0 228.3 0 199.7 0 171.2C0 142.7 0 114.3 0 85.8C0 57.3 0 28.7 0 14.3L0 0Z" fill="#8b0af6"></path>

<path d="M101 0L99.5 14.3C98 28.7 95 57.3 100.5 85.8C106 114.3 120 142.7 118.5 171.2C117 199.7 100 228.3 98.8 257C97.7 285.7 112.3 314.3 112.8 343C113.3 371.7 99.7 400.3 101.2 428.8C102.7 457.3 119.3 485.7 124 514.2C128.7 542.7 121.3 571.3 117.7 585.7L114 600L0 600L0 585.7C0 571.3 0 542.7 0 514.2C0 485.7 0 457.3 0 428.8C0 400.3 0 371.7 0 343C0 314.3 0 285.7 0 257C0 228.3 0 199.7 0 171.2C0 142.7 0 114.3 0 85.8C0 57.3 0 28.7 0 14.3L0 0Z" fill="#5f46f2"></path>

<path d="M89 0L88.7 14.3C88.3 28.7 87.7 57.3 82.5 85.8C77.3 114.3 67.7 142.7 64.3 171.2C61 199.7 64 228.3 68.2 257C72.3 285.7 77.7 314.3 75.7 343C73.7 371.7 64.3 400.3 60 428.8C55.7 457.3 56.3 485.7 64.7 514.2C73 542.7 89 571.3 97 585.7L105 600L0 600L0 585.7C0 571.3 0 542.7 0 514.2C0 485.7 0 457.3 0 428.8C0 400.3 0 371.7 0 343C0 314.3 0 285.7 0 257C0 228.3 0 199.7 0 171.2C0 142.7 0 114.3 0 85.8C0 57.3 0 28.7 0 14.3L0 0Z" fill="#385be6"></path>

<path d="M79 0L76.7 14.3C74.3 28.7 69.7 57.3 67.3 85.8C65 114.3 65 142.7 62.2 171.2C59.3 199.7 53.7 228.3 54.5 257C55.3 285.7 62.7 314.3 66.7 343C70.7 371.7 71.3 400.3 71 428.8C70.7 457.3 69.3 485.7 69.5 514.2C69.7 542.7 71.3 571.3 72.2 585.7L73 600L0 600L0 585.7C0 571.3 0 542.7 0 514.2C0 485.7 0 457.3 0 428.8C0 400.3 0 371.7 0 343C0 314.3 0 285.7 0 257C0 228.3 0 199.7 0 171.2C0 142.7 0 114.3 0 85.8C0 57.3 0 28.7 0 14.3L0 0Z" fill="#2768d3"></path>

<path d="M24 0L23.7 14.3C23.3 28.7 22.7 57.3 20.5 85.8C18.3 114.3 14.7 142.7 14.2 171.2C13.7 199.7 16.3 228.3 20.5 257C24.7 285.7 30.3 314.3 31.3 343C32.3 371.7 28.7 400.3 28.7 428.8C28.7 457.3 32.3 485.7 34 514.2C35.7 542.7 35.3 571.3 35.2 585.7L35 600L0 600L0 585.7C0 571.3 0 542.7 0 514.2C0 485.7 0 457.3 0 428.8C0 400.3 0 371.7 0 343C0 314.3 0 285.7 0 257C0 228.3 0 199.7 0 171.2C0 142.7 0 114.3 0 85.8C0 57.3 0 28.7 0 14.3L0 0Z" fill="#3870bb"></path>

</svg>